# xmcd
#
# Track frame offsets:
#	150
#	15712
#	28553
#	42948
#	58020
#	74578
#	86984
#	112459
#	129165
#	141620
#	155372
#	168490
#	186191
#
# Disc length: 2768 seconds
#
# Revision: 1
# Processed by: cddbd v1.5.2PL0 Copyright (c) Steve Scherf et al.
# Submitted via: audiograbber 1.83.01
#
DISCID=c10ace0d
DTITLE=Steff Nevers - Live from the country
DYEAR=2011
DGENRE=Country
TTITLE0=Bayou Girl
TTITLE1=What's a good 'ol boy to do
TTITLE2=What'll you do about me
TTITLE3=The Dance
TTITLE4=Cigarettes and coffee
TTITLE5=Hard liqour, cold women and warm beer
TTITLE6=Little Liza
TTITLE7=Simple country life
TTITLE8=Hotwired
TTITLE9=I'm from the country
TTITLE10=John Roland Wood
TTITLE11=Scream Celebrate
TTITLE12=Will the circle be unkbroken
EXTD=
EXTT0=
EXTT1=
EXTT2=
EXTT3=
EXTT4=
EXTT5=
EXTT6=
EXTT7=
EXTT8=
EXTT9=
EXTT10=
EXTT11=
EXTT12=
PLAYORDER=
